<?xml version="1.0"?><svg fill="#FFFFFF" id="Layer_2" data-name="Layer 2" xmlns="http://www.w3.org/2000/svg" viewBox="0 0 531.81 118.91">
  <defs>
    
    
  </defs>
  <g id="Layer_4" data-name="Layer 4">
    <g>
      <path class="cls-1" d="M75.8,36.76h-10.91v9.43c-6.18-7.78-14.86-11.67-26.05-11.67s-19.79,4.08-27.41,12.23C3.81,54.9,0,64.89,0,76.72s3.81,21.82,11.43,29.97c7.62,8.15,16.75,12.23,27.41,12.23,11.19,0,19.87-3.89,26.05-11.67v.43c0,4.97,4.03,9,9,9h11.62V46.47c0-5.36-4.34-9.71-9.71-9.71ZM58.57,92.94c-4.21,4.21-9.51,6.31-15.9,6.31s-11.67-2.1-15.82-6.31c-4.16-4.21-6.23-9.61-6.23-16.22s2.08-12.01,6.23-16.22c4.16-4.21,9.43-6.31,15.82-6.31s11.69,2.1,15.9,6.31c4.21,4.21,6.31,9.62,6.31,16.22s-2.11,12.01-6.31,16.22Z"></path>
      <path class="cls-1" d="M108.58,0h-11.19v116.67h20.62V9.43c0-5.21-4.22-9.43-9.43-9.43Z"></path>
      <path class="cls-1" d="M172.09,34.52c-12.36,0-22.48,4.02-30.37,12.07-7.89,8.05-11.83,18.09-11.83,30.13s4,22.21,11.99,30.21c7.99,7.99,18.59,11.99,31.81,11.99,11.66,0,21.17-3.29,28.52-9.88,3.64-3.26,2.96-9.16-1.27-11.61l-9.03-5.21c-4.05,5.33-10.02,7.99-17.9,7.99-12.25,0-19.77-5.01-22.53-15.02h60.25c.53-2.98.8-5.81.8-8.47,0-11.93-3.81-21.95-11.43-30.05-7.62-8.1-17.29-12.15-29.01-12.15ZM151.15,69.2c1.17-5.11,3.57-9.08,7.19-11.91,3.62-2.82,8.2-4.24,13.74-4.24,4.69,0,8.87,1.33,12.55,4,3.68,2.66,6.1,6.71,7.27,12.15h-40.75Z"></path>
      <path class="cls-1" d="M268.84,34.52c-10.87,0-18.81,3.73-23.81,11.19v-.85c0-4.48-3.63-8.1-8.1-8.1h-12.52v79.91h20.62v-43.15c0-6.61,1.6-11.56,4.79-14.86,3.2-3.3,7.46-4.95,12.79-4.95,4.79,0,8.63,1.41,11.51,4.23,2.88,2.82,4.32,6.9,4.32,12.23v46.51h20.62v-49.07c0-10.33-2.85-18.43-8.55-24.29-5.7-5.86-12.92-8.79-21.66-8.79Z"></path>
      <path class="cls-1" d="M385.92,4.79h-10.02v41.39c-6.07-7.78-14.7-11.67-25.89-11.67s-19.95,4.08-27.57,12.23c-7.62,8.15-11.43,18.14-11.43,29.97s3.81,21.82,11.43,29.97c7.62,8.15,16.81,12.23,27.57,12.23s19.82-3.89,25.89-11.67v.47c0,4.95,4.01,8.95,8.95,8.95h11.66V15.39c0-5.85-4.74-10.59-10.59-10.59ZM369.67,92.94c-4.15,4.21-9.43,6.31-15.82,6.31s-11.69-2.1-15.9-6.31c-4.21-4.21-6.31-9.61-6.31-16.22s2.1-12.01,6.31-16.22c4.21-4.21,9.51-6.31,15.9-6.31s11.67,2.1,15.82,6.31c4.16,4.21,6.23,9.62,6.23,16.22s-2.08,12.01-6.23,16.22Z"></path>
      <path class="cls-1" d="M418.72,1.76c-3.41,0-6.37,1.28-8.87,3.84-2.51,2.56-3.76,5.54-3.76,8.95s1.25,6.37,3.76,8.87c2.5,2.5,5.46,3.76,8.87,3.76s6.53-1.25,9.03-3.76c2.5-2.5,3.76-5.46,3.76-8.87s-1.25-6.39-3.76-8.95c-2.5-2.56-5.51-3.84-9.03-3.84Z"></path>
      <path class="cls-1" d="M418.89,36.76h-10.4v79.91h20.62V46.98c0-5.64-4.58-10.22-10.22-10.22Z"></path>
      <path class="cls-1" d="M488.78,72c-4.05-1.54-8.1-2.82-12.15-3.84-4.05-1.01-7.49-2.18-10.31-3.52-2.82-1.33-4.23-3.06-4.23-5.19,0-2.02.88-3.62,2.64-4.79,1.76-1.17,3.97-1.76,6.63-1.76,5.96,0,10.23,2.72,12.79,8.15l6.47-3.53c6.71-3.66,7.03-13.14.63-17.32-.69-.45-1.41-.88-2.14-1.29-5.33-2.93-11.24-4.4-17.74-4.4-8.63,0-15.85,2.27-21.66,6.79-5.81,4.53-8.71,10.74-8.71,18.62,0,5.22,1.41,9.56,4.24,13.03,2.82,3.46,6.26,5.99,10.31,7.59,4.05,1.6,8.1,2.93,12.15,4,4.05,1.07,7.48,2.26,10.31,3.6,2.82,1.33,4.23,3.06,4.23,5.19,0,4.58-3.68,6.87-11.03,6.87-8.1,0-13.32-3.46-15.66-10.39l-9.01,5.07c-5.46,3.07-6.44,10.56-1.92,14.89,6.36,6.09,15.22,9.13,26.59,9.13,9.16,0,16.81-2.21,22.93-6.63,6.13-4.42,9.19-10.73,9.19-18.94,0-5.43-1.41-9.96-4.24-13.58-2.82-3.62-6.26-6.21-10.31-7.75Z"></path>
      <path class="cls-1" d="M524.41,104.39c0-1.13-.42-2.09-1.25-2.87-.84-.78-2-1.17-3.49-1.17h-3.87v12.55h2.1v-4.48h2.12l2.39,4.48h2.34l-2.65-4.89c1.54-.61,2.31-1.82,2.31-3.63ZM519.8,106.39h-1.9v-4h1.9c.79,0,1.41.18,1.85.54.44.36.66.85.66,1.46s-.22,1.1-.66,1.46c-.44.36-1.06.54-1.85.54Z"></path>
      <path class="cls-1" d="M528.21,97.94c-2.4-2.4-5.29-3.6-8.68-3.6s-6.29,1.2-8.69,3.6c-2.4,2.4-3.6,5.29-3.6,8.69s1.2,6.29,3.6,8.69c2.4,2.4,5.29,3.6,8.69,3.6s6.29-1.2,8.68-3.6c2.4-2.4,3.6-5.29,3.6-8.69s-1.2-6.29-3.6-8.69ZM527.48,114.65c-2.21,2.21-4.86,3.31-7.96,3.31s-5.75-1.1-7.96-3.31c-2.2-2.21-3.31-4.88-3.31-8.02s1.1-5.82,3.31-8.02c2.21-2.21,4.86-3.31,7.96-3.31s5.75,1.1,7.96,3.31c2.21,2.21,3.31,4.88,3.31,8.02s-1.1,5.82-3.31,8.02Z"></path>
    </g>
  </g>
</svg>